

    <!-- GitHub -->
    <svg
      xmlns="http://www.w3.org/2000/svg"
      width="48"
      height="48"
      viewBox="0 0 24 24"
      fill="white"
      stroke="black"
      stroke-width="2"
      stroke-linecap="round"
      stroke-linejoin="round"
      class="icon"
    >
      <path
        d="M12 2C6.48 2 2 6.48 2 12c0 4.42 2.87 8.17 6.84 9.49.5.09.68-.22.68-.48 0-.24-.01-.87-.01-1.71-2.78.61-3.37-1.34-3.37-1.34-.46-1.17-1.11-1.48-1.11-1.48-.91-.62.07-.6.07-.6 1 .07 1.53 1.03 1.53 1.03.9 1.54 2.36 1.1 2.94.84.09-.65.35-1.1.63-1.35-2.22-.25-4.56-1.11-4.56-4.95 0-1.09.39-1.98 1.03-2.68-.1-.26-.45-1.28.1-2.66 0 0 .84-.27 2.75 1.02a9.56 9.56 0 0 1 2.5-.34 9.57 9.57 0 0 1 2.5.34c1.9-1.3 2.74-1.02 2.74-1.02.55 1.38.2 2.4.1 2.66.64.7 1.03 1.59 1.03 2.68 0 3.85-2.34 4.7-4.57 4.95.36.31.69.92.69 1.85 0 1.34-.01 2.42-.01 2.75 0 .27.18.58.69.48A10.01 10.01 0 0 0 22 12c0-5.52-4.48-10-10-10z"
      />
    </svg>
